<?xml version="1.0" encoding="UTF-8"?>
<svg width="700pt" height="700pt" version="1.1" viewBox="0 0 700 700" xmlns="http://www.w3.org/2000/svg" xmlns:xlink="http://www.w3.org/1999/xlink">
 <defs>
  <symbol id="w" overflow="visible">
   <path d="m16.531-0.98438c-0.84375 0.4375-1.7305 0.76562-2.6562 0.98438-0.92969 0.22656-1.8906 0.34375-2.8906 0.34375-3 0-5.375-0.83203-7.125-2.5-1.75-1.6758-2.625-3.9531-2.625-6.8281s0.875-5.1484 2.625-6.8281c1.75-1.6758 4.125-2.5156 7.125-2.5156 1 0 1.9609 0.11719 2.8906 0.34375 0.92578 0.23047 1.8125 0.5625 2.6562 1v3.7188c-0.85547-0.58203-1.7031-1.0078-2.5469-1.2812-0.83594-0.26953-1.7109-0.40625-2.625-0.40625-1.6562 0-2.9609 0.53125-3.9062 1.5938-0.94922 1.0547-1.4219 2.5117-1.4219 4.375 0 1.8555 0.47266 3.3125 1.4219 4.375 0.94531 1.0625 2.25 1.5938 3.9062 1.5938 0.91406 0 1.7891-0.13281 2.625-0.40625 0.84375-0.26953 1.6914-0.70312 2.5469-1.2969z"/>
  </symbol>
  <symbol id="d" overflow="visible">
   <path d="m12.109-9.8281c-0.38672-0.17578-0.76562-0.30469-1.1406-0.39062-0.36719-0.082031-0.74219-0.125-1.125-0.125-1.1055 0-1.9609 0.35938-2.5625 1.0781-0.59375 0.71094-0.89062 1.7266-0.89062 3.0469v6.2188h-4.3125v-13.5h4.3125v2.2188c0.55078-0.88281 1.1875-1.5312 1.9062-1.9375s1.582-0.60938 2.5938-0.60938c0.14453 0 0.30078 0.007813 0.46875 0.015625 0.16406 0.011719 0.41016 0.039062 0.73438 0.078125z"/>
  </symbol>
  <symbol id="c" overflow="visible">
   <path d="m15.547-6.7812v1.2188h-10.094c0.11328 1.0234 0.48438 1.7891 1.1094 2.2969 0.625 0.5 1.5 0.75 2.625 0.75 0.90625 0 1.832-0.13281 2.7812-0.40625 0.95703-0.26953 1.9375-0.67578 2.9375-1.2188v3.3281c-1.0234 0.38672-2.043 0.67188-3.0625 0.85938-1.0234 0.19531-2.043 0.29688-3.0625 0.29688-2.4375 0-4.3359-0.61719-5.6875-1.8594-1.3555-1.2383-2.0312-2.9766-2.0312-5.2188 0-2.207 0.66016-3.9414 1.9844-5.2031 1.332-1.2578 3.1641-1.8906 5.5-1.8906 2.125 0 3.8203 0.64062 5.0938 1.9219 1.2695 1.2734 1.9062 2.9805 1.9062 5.125zm-4.4375-1.4375c0-0.82031-0.24219-1.4844-0.71875-1.9844-0.46875-0.5-1.0938-0.75-1.875-0.75-0.83594 0-1.5117 0.23438-2.0312 0.70312-0.52344 0.46875-0.84375 1.1484-0.96875 2.0312z"/>
  </symbol>
  <symbol id="e" overflow="visible">
   <path d="m8.125-6.0781c-0.89844 0-1.5742 0.15625-2.0312 0.46875-0.46094 0.30469-0.6875 0.75-0.6875 1.3438 0 0.54297 0.17969 0.96875 0.54688 1.2812 0.375 0.3125 0.88281 0.46875 1.5312 0.46875 0.8125 0 1.4922-0.28906 2.0469-0.875 0.55078-0.58203 0.82812-1.3125 0.82812-2.1875v-0.5zm6.5938-1.625v7.7031h-4.3594v-2c-0.57422 0.82422-1.2266 1.4219-1.9531 1.7969-0.71875 0.36328-1.5938 0.54688-2.625 0.54688-1.4062 0-2.5469-0.40625-3.4219-1.2188-0.86719-0.8125-1.2969-1.8672-1.2969-3.1719 0-1.582 0.53906-2.7422 1.625-3.4844 1.0938-0.73828 2.8047-1.1094 5.1406-1.1094h2.5312v-0.34375c0-0.67578-0.27344-1.1719-0.8125-1.4844-0.53125-0.32031-1.3672-0.48438-2.5-0.48438-0.92969 0-1.793 0.09375-2.5938 0.28125-0.79297 0.17969-1.5312 0.45312-2.2188 0.82812v-3.2969c0.92578-0.22656 1.8516-0.39844 2.7812-0.51562 0.9375-0.11328 1.875-0.17188 2.8125-0.17188 2.4258 0 4.1797 0.48047 5.2656 1.4375 1.082 0.96094 1.625 2.5234 1.625 4.6875z"/>
  </symbol>
  <symbol id="b" overflow="visible">
   <path d="m6.7812-17.328v3.8281h4.4531v3.0781h-4.4531v5.7344c0 0.625 0.125 1.0469 0.375 1.2656s0.74219 0.32812 1.4844 0.32812h2.2188v3.0938h-3.7031c-1.6992 0-2.9062-0.35156-3.625-1.0625-0.71094-0.71875-1.0625-1.9258-1.0625-3.625v-5.7344h-2.1406v-3.0781h2.1406v-3.8281z"/>
  </symbol>
  <symbol id="l" overflow="visible">
   <path d="m11.266-11.531v-7.2188h4.3281v18.75h-4.3281v-1.9531c-0.60547 0.79297-1.2656 1.375-1.9844 1.75-0.71094 0.36328-1.5312 0.54688-2.4688 0.54688-1.668 0-3.0391-0.65625-4.1094-1.9688-1.0625-1.3203-1.5938-3.0234-1.5938-5.1094 0-2.082 0.53125-3.7852 1.5938-5.1094 1.0703-1.3203 2.4414-1.9844 4.1094-1.9844 0.92578 0 1.75 0.1875 2.4688 0.5625s1.3789 0.95312 1.9844 1.7344zm-2.8594 8.75c0.92578 0 1.6328-0.33594 2.125-1.0156 0.48828-0.67578 0.73438-1.6562 0.73438-2.9375 0-1.2891-0.24609-2.2695-0.73438-2.9375-0.49219-0.67578-1.1992-1.0156-2.125-1.0156-0.90625 0-1.6055 0.33984-2.0938 1.0156-0.49219 0.66797-0.73438 1.6484-0.73438 2.9375 0 1.2812 0.24219 2.2617 0.73438 2.9375 0.48828 0.67969 1.1875 1.0156 2.0938 1.0156z"/>
  </symbol>
  <symbol id="k" overflow="visible">
   <path d="m9.2656-2.7812c0.91406 0 1.6172-0.33594 2.1094-1.0156 0.48828-0.67578 0.73438-1.6562 0.73438-2.9375 0-1.2891-0.24609-2.2695-0.73438-2.9375-0.49219-0.67578-1.1953-1.0156-2.1094-1.0156-0.92969 0-1.6406 0.33984-2.1406 1.0156-0.49219 0.67969-0.73438 1.6562-0.73438 2.9375 0 1.2734 0.24219 2.25 0.73438 2.9375 0.5 0.67969 1.2109 1.0156 2.1406 1.0156zm-2.875-8.75c0.59375-0.78125 1.25-1.3594 1.9688-1.7344 0.72656-0.375 1.5625-0.5625 2.5-0.5625 1.6641 0 3.0312 0.66406 4.0938 1.9844 1.0703 1.3242 1.6094 3.0273 1.6094 5.1094 0 2.0859-0.53906 3.7891-1.6094 5.1094-1.0625 1.3125-2.4297 1.9688-4.0938 1.9688-0.9375 0-1.7734-0.18359-2.5-0.54688-0.71875-0.375-1.375-0.95703-1.9688-1.75v1.9531h-4.3125v-18.75h4.3125z"/>
  </symbol>
  <symbol id="j" overflow="visible">
   <path d="m0.29688-13.5h4.3125l3.6406 9.1562 3.0781-9.1562h4.3125l-5.6719 14.781c-0.57422 1.5-1.2422 2.5469-2 3.1406-0.76172 0.60156-1.7617 0.90625-3 0.90625h-2.5v-2.8281h1.3594c0.72656 0 1.2578-0.12109 1.5938-0.35938 0.33203-0.23047 0.59375-0.64844 0.78125-1.25l0.10938-0.375z"/>
  </symbol>
  <symbol id="i" overflow="visible">
   <path d="m2.2656-18h4.6406v16.25c0 2.2383-0.60938 3.9102-1.8281 5.0156-1.2188 1.1133-3.0625 1.6719-5.5312 1.6719h-0.9375v-3.5h0.73438c0.95703 0 1.6797-0.27344 2.1719-0.8125 0.5-0.54297 0.75-1.332 0.75-2.375z"/>
  </symbol>
  <symbol id="a" overflow="visible">
   <path d="m8.5-10.734c-0.96094 0-1.6875 0.34375-2.1875 1.0312s-0.75 1.6797-0.75 2.9688c0 1.293 0.25 2.2812 0.75 2.9688s1.2266 1.0312 2.1875 1.0312c0.9375 0 1.6562-0.34375 2.1562-1.0312s0.75-1.6758 0.75-2.9688c0-1.2891-0.25-2.2812-0.75-2.9688s-1.2188-1.0312-2.1562-1.0312zm0-3.0938c2.3203 0 4.1328 0.63281 5.4375 1.8906 1.3125 1.25 1.9688 2.9844 1.9688 5.2031s-0.65625 3.9531-1.9688 5.2031c-1.3047 1.25-3.1172 1.875-5.4375 1.875-2.3359 0-4.1562-0.625-5.4688-1.875s-1.9688-2.9844-1.9688-5.2031 0.65625-3.9531 1.9688-5.2031c1.3125-1.2578 3.1328-1.8906 5.4688-1.8906z"/>
  </symbol>
  <symbol id="h" overflow="visible">
   <path d="m15.641-8.2188v8.2188h-4.3281v-6.2969c0-1.1641-0.027344-1.9688-0.078125-2.4062-0.054687-0.4375-0.14844-0.76562-0.28125-0.98438-0.16797-0.28125-0.39844-0.5-0.6875-0.65625-0.28125-0.15625-0.60938-0.23438-0.98438-0.23438-0.89844 0-1.6055 0.35156-2.125 1.0469-0.51172 0.69922-0.76562 1.6641-0.76562 2.8906v6.6406h-4.3125v-13.5h4.3125v1.9688c0.64453-0.78125 1.332-1.3594 2.0625-1.7344 0.73828-0.375 1.5508-0.5625 2.4375-0.5625 1.5508 0 2.7266 0.48047 3.5312 1.4375 0.8125 0.96094 1.2188 2.3516 1.2188 4.1719z"/>
  </symbol>
  <symbol id="g" overflow="visible">
   <path d="m12.625-13.078v3.2812c-0.92969-0.38281-1.8242-0.67188-2.6875-0.85938-0.85547-0.19531-1.6641-0.29688-2.4219-0.29688-0.82422 0-1.4336 0.10547-1.8281 0.3125-0.39844 0.19922-0.59375 0.51172-0.59375 0.9375 0 0.34375 0.14453 0.60938 0.4375 0.79688 0.30078 0.1875 0.84375 0.32422 1.625 0.40625l0.76562 0.10938c2.207 0.28125 3.6914 0.74609 4.4531 1.3906 0.76953 0.63672 1.1562 1.6406 1.1562 3.0156 0 1.4492-0.53125 2.5312-1.5938 3.25s-2.6484 1.0781-4.75 1.0781c-0.89844 0-1.8242-0.074219-2.7812-0.21875-0.94922-0.13281-1.9219-0.34375-2.9219-0.625v-3.2656c0.85156 0.41797 1.7344 0.73047 2.6406 0.9375 0.90625 0.21094 1.8281 0.3125 2.7656 0.3125 0.84375 0 1.4727-0.11328 1.8906-0.34375 0.42578-0.23828 0.64062-0.58594 0.64062-1.0469 0-0.38281-0.14844-0.67188-0.4375-0.85938-0.29297-0.1875-0.875-0.33203-1.75-0.4375l-0.76562-0.09375c-1.918-0.25-3.2617-0.69531-4.0312-1.3438-0.77344-0.65625-1.1562-1.6445-1.1562-2.9688 0-1.4258 0.48828-2.4844 1.4688-3.1719 0.97656-0.69531 2.4766-1.0469 4.5-1.0469 0.80078 0 1.6406 0.0625 2.5156 0.1875 0.875 0.11719 1.8281 0.30469 2.8594 0.5625z"/>
  </symbol>
  <symbol id="v" overflow="visible">
   <path d="m2.2656-18h12.531v3.5156h-7.8906v3.3438h7.4219v3.5156h-7.4219v4.1094h8.1562v3.5156h-12.797z"/>
  </symbol>
  <symbol id="u" overflow="visible">
   <path d="m2.0781-18.75h4.3125v10.203l4.9688-4.9531h5.0156l-6.5938 6.1875 7.1094 7.3125h-5.2344l-5.2656-5.625v5.625h-4.3125z"/>
  </symbol>
  <symbol id="f" overflow="visible">
   <path d="m15.641-8.2188v8.2188h-4.3281v-6.2656c0-1.1875-0.027344-2-0.078125-2.4375-0.054687-0.4375-0.14844-0.76562-0.28125-0.98438-0.16797-0.28125-0.39844-0.5-0.6875-0.65625-0.28125-0.15625-0.60938-0.23438-0.98438-0.23438-0.89844 0-1.6055 0.35156-2.125 1.0469-0.51172 0.69922-0.76562 1.6641-0.76562 2.8906v6.6406h-4.3125v-18.75h4.3125v7.2188c0.64453-0.78125 1.332-1.3594 2.0625-1.7344 0.73828-0.375 1.5508-0.5625 2.4375-0.5625 1.5508 0 2.7266 0.48047 3.5312 1.4375 0.8125 0.96094 1.2188 2.3516 1.2188 4.1719z"/>
  </symbol>
  <symbol id="t" overflow="visible">
   <path d="m2.0781-18.75h4.3125v18.75h-4.3125z"/>
  </symbol>
  <symbol id="s" overflow="visible">
   <path d="m10.953-18.75v2.8281h-2.375c-0.61719 0-1.043 0.10938-1.2812 0.32812-0.24219 0.21875-0.35938 0.60547-0.35938 1.1562v0.9375h3.6875v3.0781h-3.6875v10.422h-4.3281v-10.422h-2.1406v-3.0781h2.1406v-0.9375c0-1.4688 0.41016-2.5508 1.2344-3.25 0.82031-0.70703 2.0938-1.0625 3.8125-1.0625z"/>
  </symbol>
  <symbol id="r" overflow="visible">
   <path d="m14.578-11.266c0.55078-0.83203 1.2031-1.4688 1.9531-1.9062s1.5781-0.65625 2.4844-0.65625c1.5508 0 2.7266 0.48047 3.5312 1.4375 0.8125 0.96094 1.2188 2.3516 1.2188 4.1719v8.2188h-4.3281v-7.0469-0.3125c0.007812-0.11328 0.015625-0.27344 0.015625-0.48438 0-0.95703-0.14062-1.6484-0.42188-2.0781-0.28125-0.4375-0.73438-0.65625-1.3594-0.65625-0.82422 0-1.4609 0.33984-1.9062 1.0156-0.4375 0.67969-0.66797 1.6562-0.6875 2.9375v6.625h-4.3438v-7.0469c0-1.4883-0.13281-2.4453-0.39062-2.875-0.25-0.4375-0.70312-0.65625-1.3594-0.65625-0.83594 0-1.4766 0.34375-1.9219 1.0312-0.44922 0.67969-0.67188 1.6484-0.67188 2.9062v6.6406h-4.3438v-13.5h4.3438v1.9688c0.53125-0.75781 1.1406-1.332 1.8281-1.7188 0.6875-0.38281 1.4414-0.57812 2.2656-0.57812 0.9375 0 1.7578 0.23047 2.4688 0.6875 0.71875 0.44922 1.2578 1.0742 1.625 1.875z"/>
  </symbol>
  <symbol id="q" overflow="visible">
   <path d="m2.2656-18h5.1875l6.5469 12.344v-12.344h4.3906v18h-5.1719l-6.5469-12.344v12.344h-4.4062z"/>
  </symbol>
  <symbol id="p" overflow="visible">
   <path d="m1.9219-5.25v-8.25h4.3438v1.3438c0 0.74219-0.007813 1.6641-0.015625 2.7656v2.2031c0 1.0859 0.023438 1.8672 0.078125 2.3438 0.050781 0.48047 0.14844 0.82812 0.29688 1.0469 0.17578 0.28125 0.40625 0.5 0.6875 0.65625 0.28125 0.14844 0.60938 0.21875 0.98438 0.21875 0.89453 0 1.5977-0.34375 2.1094-1.0312 0.51953-0.6875 0.78125-1.6445 0.78125-2.875v-6.6719h4.3125v13.5h-4.3125v-1.9531c-0.65625 0.79297-1.3516 1.375-2.0781 1.75-0.71875 0.36328-1.5156 0.54688-2.3906 0.54688-1.5625 0-2.7578-0.47266-3.5781-1.4219-0.8125-0.95703-1.2188-2.3477-1.2188-4.1719z"/>
  </symbol>
  <symbol id="o" overflow="visible">
   <path d="m2.2656-18h7.7031c2.2891 0 4.0469 0.51172 5.2656 1.5312 1.2266 1.0117 1.8438 2.4609 1.8438 4.3438 0 1.8867-0.61719 3.3398-1.8438 4.3594-1.2188 1.0117-2.9766 1.5156-5.2656 1.5156h-3.0625v6.25h-4.6406zm4.6406 3.3594v5.0312h2.5625c0.90625 0 1.6016-0.21875 2.0938-0.65625 0.48828-0.4375 0.73438-1.0547 0.73438-1.8594 0-0.80078-0.24609-1.4219-0.73438-1.8594-0.49219-0.4375-1.1875-0.65625-2.0938-0.65625z"/>
  </symbol>
  <symbol id="n" overflow="visible">
   <path d="m2.0781-13.5h4.3125v13.266c0 1.8008-0.4375 3.1758-1.3125 4.125-0.86719 0.95703-2.1211 1.4375-3.7656 1.4375h-2.125v-2.8281h0.73438c0.82031 0 1.3828-0.1875 1.6875-0.5625 0.3125-0.36719 0.46875-1.0898 0.46875-2.1719zm0-5.25h4.3125v3.5156h-4.3125z"/>
  </symbol>
  <symbol id="m" overflow="visible">
   <path d="m12.984-13.078v3.5156c-0.58594-0.39453-1.1719-0.6875-1.7656-0.875-0.59375-0.19531-1.2109-0.29688-1.8438-0.29688-1.2109 0-2.1484 0.35547-2.8125 1.0625-0.66797 0.69922-1 1.6797-1 2.9375 0 1.2617 0.33203 2.2461 1 2.9531 0.66406 0.69922 1.6016 1.0469 2.8125 1.0469 0.67578 0 1.3164-0.097656 1.9219-0.29688 0.61328-0.20703 1.1758-0.50781 1.6875-0.90625v3.5469c-0.67969 0.24219-1.3672 0.42188-2.0625 0.54688-0.6875 0.125-1.3867 0.1875-2.0938 0.1875-2.4297 0-4.3281-0.625-5.7031-1.875s-2.0625-2.9844-2.0625-5.2031c0-2.2266 0.6875-3.9688 2.0625-5.2188s3.2734-1.875 5.7031-1.875c0.70703 0 1.4062 0.0625 2.0938 0.1875s1.375 0.3125 2.0625 0.5625z"/>
  </symbol>
 </defs>
 <g>
  <path d="m430.99 274.57-151.11-151.11c-2.4688-2.4688-6.418-2.4688-9.3828 0-2.9648 2.4688-2.4688 6.418 0 9.3828l146.17 146.17-148.15 148.15c-2.4688 2.4688-2.4688 6.418 0 9.3828 1.4805 1.4805 2.9648 1.9766 4.4453 1.9766 1.4805 0 3.457-0.49219 4.4453-1.9766l152.59-152.59c3.457-2.4688 3.457-6.9141 0.98828-9.3828z"/>
  <use x="70" y="634.074219" xlink:href="#w"/>
  <use x="88.121094" y="634.074219" xlink:href="#d"/>
  <use x="100.296875" y="634.074219" xlink:href="#c"/>
  <use x="117.042969" y="634.074219" xlink:href="#e"/>
  <use x="133.707031" y="634.074219" xlink:href="#b"/>
  <use x="145.507812" y="634.074219" xlink:href="#c"/>
  <use x="162.253906" y="634.074219" xlink:href="#l"/>
  <use x="188.527344" y="634.074219" xlink:href="#k"/>
  <use x="206.199219" y="634.074219" xlink:href="#j"/>
  <use x="230.890625" y="634.074219" xlink:href="#i"/>
  <use x="240.078125" y="634.074219" xlink:href="#a"/>
  <use x="257.042969" y="634.074219" xlink:href="#h"/>
  <use x="274.621094" y="634.074219" xlink:href="#e"/>
  <use x="291.28125" y="634.074219" xlink:href="#g"/>
  <use x="314.574219" y="634.074219" xlink:href="#v"/>
  <use x="331.441406" y="634.074219" xlink:href="#u"/>
  <use x="347.863281" y="634.074219" xlink:href="#f"/>
  <use x="365.441406" y="634.074219" xlink:href="#a"/>
  <use x="382.402344" y="634.074219" xlink:href="#t"/>
  <use x="390.867188" y="634.074219" xlink:href="#g"/>
  <use x="405.5625" y="634.074219" xlink:href="#b"/>
  <use x="70" y="658.765625" xlink:href="#s"/>
  <use x="80.742188" y="658.765625" xlink:href="#d"/>
  <use x="92.917969" y="658.765625" xlink:href="#a"/>
  <use x="109.882813" y="658.765625" xlink:href="#r"/>
  <use x="144.207031" y="658.765625" xlink:href="#b"/>
  <use x="156.011719" y="658.765625" xlink:href="#f"/>
  <use x="173.589844" y="658.765625" xlink:href="#c"/>
  <use x="198.929688" y="658.765625" xlink:href="#q"/>
  <use x="219.59375" y="658.765625" xlink:href="#a"/>
  <use x="236.558594" y="658.765625" xlink:href="#p"/>
  <use x="254.136719" y="658.765625" xlink:href="#h"/>
  <use x="280.3125" y="658.765625" xlink:href="#o"/>
  <use x="298.40625" y="658.765625" xlink:href="#d"/>
  <use x="310.585938" y="658.765625" xlink:href="#a"/>
  <use x="327.546875" y="658.765625" xlink:href="#n"/>
  <use x="336.011719" y="658.765625" xlink:href="#c"/>
  <use x="352.757812" y="658.765625" xlink:href="#m"/>
  <use x="367.394531" y="658.765625" xlink:href="#b"/>
 </g>
</svg>
