<?xml version="1.0" encoding="UTF-8"?>
<svg width="700pt" height="700pt" version="1.1" viewBox="0 0 700 700" xmlns="http://www.w3.org/2000/svg">
 <path fill="#00c2f0" d="m343.67 46.77c-118.82 3.6992-217.71 96.32-226.45 216.29-9.3242 127.96 87.055 239.84 214.97 249.6 127.91 9.7617 240.28-86.203 250.47-214.1 10.195-127.9-85.672-240.61-214.79-251.34v0.003906h-0.1875c-8.0781-0.5625-16.094-0.70312-24.016-0.45312zm1.0469 46.621c6.3789-0.21094 12.805-0.070313 19.324 0.36328 0.046875 0.003906 0.11719-0.003906 0.1875 0 104.25 8.7461 180.09 98.211 171.9 200.98-8.1914 102.82-97.477 179.25-200.29 171.4s-179.4-96.918-171.9-199.79c7.0234-96.332 85.125-169.95 180.79-172.95zm5.6953 47.215h0.003907c-5.957 0.1875-11.617 2.6523-15.816 6.8789l-93.332 93.195v0.003906c-4.1797 4.2188-6.5938 9.875-6.7461 15.812-0.21875 6.4258 2.2188 12.66 6.7461 17.227 4.375 4.3906 10.32 6.8555 16.52 6.8555 6.1992 0 12.145-2.4648 16.52-6.8555l76.836-76.789 78.523 79.023c4.3555 4.4258 10.293 6.9336 16.504 6.9688 6.2109 0.035157 12.176-2.4062 16.582-6.7852 4.3867-4.375 6.8555-10.32 6.8555-16.52 0-6.1992-2.4688-12.141-6.8555-16.52l-95.066-95.613c-4.5547-4.5859-10.809-7.0781-17.27-6.8789zm0 114.57h0.003907c-5.9531 0.17578-11.609 2.6211-15.816 6.8359l-93.332 93.379c-4.1484 4.1836-6.5586 9.7852-6.7461 15.676-0.27344 6.4883 2.1719 12.797 6.7461 17.41 4.375 4.3867 10.32 6.8555 16.52 6.8555 6.1992 0 12.145-2.4688 16.52-6.8555l76.836-76.836 78.523 79.07v-0.003907c4.3789 4.4023 10.332 6.8789 16.543 6.8789 6.2109 0 12.164-2.4766 16.543-6.8789 4.3477-4.3711 6.7852-10.285 6.7852-16.449 0-6.168-2.4375-12.082-6.7852-16.453l-95.066-95.793c-4.5625-4.5703-10.816-7.0469-17.27-6.8359z"/>
</svg>
